<?xml version="1.0" encoding="utf-8"?>
<!-- Generator: Adobe Illustrator 17.1.0, SVG Export Plug-In . SVG Version: 6.00 Build 0)  -->
<!DOCTYPE svg PUBLIC "-//W3C//DTD SVG 1.1//EN" "http://www.w3.org/Graphics/SVG/1.1/DTD/svg11.dtd">
<svg version="1.1" id="icons" xmlns="http://www.w3.org/2000/svg" xmlns:xlink="http://www.w3.org/1999/xlink" x="0px" y="0px"
	 viewBox="0 0 8.9 11.7" enable-background="new 0 0 8.9 11.7" xml:space="preserve">
<g display="none">
	<path display="inline" d="M8.6,4.4v5.9c0,0.3-0.2,0.5-0.5,0.5H0.5c-0.3,0-0.5-0.2-0.5-0.5V1.3C0,1,0.2,0.8,0.5,0.8H5v3
		c0,0.3,0.2,0.5,0.5,0.5H8.6z M6.4,5.3c0-0.1-0.1-0.2-0.2-0.2H2.3c-0.1,0-0.2,0.1-0.2,0.2v0.4c0,0.1,0.1,0.2,0.2,0.2h3.9
		c0.1,0,0.2-0.1,0.2-0.2V5.3z M6.4,6.7c0-0.1-0.1-0.2-0.2-0.2H2.3c-0.1,0-0.2,0.1-0.2,0.2v0.4c0,0.1,0.1,0.2,0.2,0.2h3.9
		c0.1,0,0.2-0.1,0.2-0.2V6.7z M6.4,8.1c0-0.1-0.1-0.2-0.2-0.2H2.3C2.2,7.9,2.1,8,2.1,8.1v0.4c0,0.1,0.1,0.2,0.2,0.2h3.9
		c0.1,0,0.2-0.1,0.2-0.2V8.1z M8.4,3.7H5.7V1c0.1,0,0.1,0.1,0.2,0.2l2.3,2.3C8.3,3.5,8.3,3.6,8.4,3.7z"/>
</g>
<g>
	<path d="M8.6,3.8v6.4c0,0.3-0.2,0.5-0.5,0.5H0.5c-0.3,0-0.5-0.2-0.5-0.5V1.3C0,1,0.2,0.8,0.5,0.8h5c0.3,0,0.7,0.2,0.9,0.4l1.7,1.7
		C8.4,3.1,8.6,3.5,8.6,3.8z M7.9,4.4H5.5C5.2,4.4,5,4.1,5,3.8V1.5H0.7v8.6h7.1V4.4z M2.3,5.1h3.9c0.1,0,0.2,0.1,0.2,0.2v0.4
		c0,0.1-0.1,0.2-0.2,0.2H2.3c-0.1,0-0.2-0.1-0.2-0.2V5.3C2.1,5.2,2.2,5.1,2.3,5.1z M6.4,6.7v0.4c0,0.1-0.1,0.2-0.2,0.2H2.3
		c-0.1,0-0.2-0.1-0.2-0.2V6.7c0-0.1,0.1-0.2,0.2-0.2h3.9C6.4,6.5,6.4,6.6,6.4,6.7z M6.4,8.1v0.4c0,0.1-0.1,0.2-0.2,0.2H2.3
		c-0.1,0-0.2-0.1-0.2-0.2V8.1c0-0.1,0.1-0.2,0.2-0.2h3.9C6.4,7.9,6.4,8,6.4,8.1z M5.7,3.7h2.1c0-0.1-0.1-0.2-0.1-0.2L5.9,1.7
		c0,0-0.1-0.1-0.2-0.1V3.7z"/>
</g>
</svg>
