<?xml version="1.0" encoding="utf-8"?>
<!-- Generator: Adobe Illustrator 18.1.1, SVG Export Plug-In . SVG Version: 6.00 Build 0)  -->
<svg version="1.1" id="tittle" xmlns="http://www.w3.org/2000/svg" xmlns:xlink="http://www.w3.org/1999/xlink" x="0px" y="0px"
	 viewBox="0 0 42.1 34.3" enable-background="new 0 0 42.1 34.3" xml:space="preserve">
<path fill="#262626" d="M41.8,6.8c0.4-0.4,0.4-1,0-1.4l-5-5c-0.4-0.4-1-0.4-1.4,0L14.6,21.1c-0.4,0.4-1,0.4-1.4,0l-6.4-6.4
	c-0.4-0.4-1-0.4-1.4,0l-5,5c-0.4,0.4-0.4,1,0,1.4L13.1,34c0.4,0.4,1,0.4,1.4,0l5-5c0.4-0.4,1-1,1.4-1.4L41.8,6.8z"/>
</svg>
